<svg xmlns="http://www.w3.org/2000/svg" width="390" height="844" viewBox="0 0 390 844">
  <rect width="390" height="844" fill="#fdf8ff"/>
  <text x="54" y="56" font-size="20" font-weight="700" fill="#5a45cb">鏁欒偛鎻愬垎鎶ュ憡</text>

  <text x="28" y="92" font-size="13" fill="#474554">閿欓 1 / 8</text>
  <rect x="18" y="116" width="354" height="580" rx="16" fill="#ffffff" stroke="#c9c4d6"/>
  <rect x="42" y="142" width="58" height="28" rx="8" fill="#7360e5"/>
  <text x="54" y="161" font-size="11" font-weight="700" fill="#ffffff">閿欓 1</text>
  <rect x="110" y="142" width="156" height="28" rx="8" fill="#f1ecf8"/>
  <text x="122" y="161" font-size="10" font-weight="700" fill="#5a45cb">鏂圭▼搴旂敤棰?/text>
  <rect x="286" y="142" width="58" height="28" rx="8" fill="#ffdad6"/>
  <text x="298" y="161" font-size="10" font-weight="700" fill="#93000a">鏈帉鎻?/text>
  <rect x="42" y="186" width="4" height="24" rx="2" fill="#5a45cb"/>
  <text x="54" y="206" font-size="15" font-weight="700" fill="#1c1b23">鍘熼</text>
  <text x="42" y="236" font-size="12" fill="#474554">鐢层€佷箼涓や汉鍚屾椂浠?A 鍦板嚭鍙戯紝鐢叉瘡灏忔椂琛?60km锛屼箼姣忓皬鏃惰 50km锛? 灏忔椂鍚庣敳姣斾箼澶氳澶氬皯鍗冪背锛?/text>
  <rect x="42" y="276" width="306" height="70" rx="12" fill="#f9f9f9" stroke="#c9c4d6"/>
  <text x="50" y="302" font-size="15" font-weight="700" fill="#1c1b23">瀛︾敓浣滅瓟</text>
  <text x="50" y="326" font-size="12" fill="#474554">瀛︾敓鍒楀紡涓?60 + 50 = 110锛屾贩娣嗕簡閫熷害鍜岃矾绋嬪樊銆?/text>
  <text x="42" y="388" font-size="15" font-weight="700" fill="#1c1b23">姝ｇ‘绛旀</text>
  <text x="42" y="414" font-size="15" font-weight="700" fill="#5a45cb">20 鍗冪背</text>
  <text x="198" y="388" font-size="15" font-weight="700" fill="#1c1b23">鐭ヨ瘑鐐?/text>
  <text x="198" y="414" font-size="12" fill="#474554">鏂圭▼搴旂敤棰?/text>
  <rect x="42" y="450" width="306" height="82" rx="16" fill="#f7f1fd"/>
  <text x="58" y="478" font-size="15" font-weight="700" fill="#1c1b23">閿欏洜璇婃柇</text>
  <text x="58" y="504" font-size="12" fill="#474554">娌℃湁鎶娾€滅敳姣斾箼澶氳鈥濈悊瑙ｄ负涓や汉鐨勮矾绋嬪樊锛屾紡鎺変簡鈥滈€熷害宸?脳 鏃堕棿鈥濈殑鍏崇郴銆?/text>
  <text x="42" y="574" font-size="15" font-weight="700" fill="#1c1b23">璁茶В鎽樿</text>
  <text x="42" y="602" font-size="12" fill="#474554">鏈鍏抽敭鏄厛姹傞€熷害宸細60 - 50 = 10km/h锛屽啀涔樹互 2 灏忔椂锛屽緱鍒?20 鍗冪背銆?/text>
  <circle cx="318" cy="604" r="32" fill="#e5deff"/>
  <text x="302" y="612" font-size="18" font-weight="800" fill="#442bb5">AI</text>
  <rect x="42" y="646" width="306" height="42" rx="16" fill="#5a45cb"/>
  <text x="104" y="673" font-size="14" font-weight="700" fill="#ffffff">璁?AI 鑰佸笀璁茬粰瀛╁瓙鍚?/text>
  <rect x="18" y="716" width="354" height="64" rx="16" fill="#ebe6f2"/>
  <text x="42" y="746" font-size="15" font-weight="700" fill="#1c1b23">鏈浜掑姩璁板綍 (1)</text>
  <text x="42" y="768" font-size="11" fill="#474554">AI 宸茶瑙ｏ細鍏堟瘮杈冮€熷害宸紝鍐嶄箻浠ユ椂闂淬€?/text>
  <rect x="18" y="804" width="108" height="34" rx="14" fill="#ffffff" stroke="#c9c4d6"/>
  <text x="50" y="826" font-size="11" font-weight="700" fill="#474554">鍒嗕韩鎶ュ憡</text>
  <rect x="141" y="804" width="108" height="34" rx="14" fill="#7360e5"/>
  <text x="176" y="826" font-size="11" font-weight="700" fill="#ffffff">AI 鎻愬垎</text>
  <rect x="264" y="804" width="108" height="34" rx="14" fill="#ffffff" stroke="#c9c4d6"/>
  <text x="296" y="826" font-size="11" font-weight="700" fill="#474554">瀵煎嚭 PDF</text>
</svg>
