<svg xmlns="urn:scoremap:local-svg" width="390" height="844" viewBox="0 0 390 844">  <rect width="390" height="844" fill="#f6f7fb"/>  <text x="28" y="72" font-size="24" font-weight="700" fill="#111827">我的</text>  <rect x="28" y="104" width="334" height="88" rx="20" fill="#ffffff" stroke="#e5e7eb"/>  <circle cx="72" cy="148" r="24" fill="#dbeafe"/>  <text x="55" y="154" font-size="14" font-weight="700" fill="#1d4ed8">家长</text>  <text x="112" y="136" font-size="16" font-weight="700" fill="#111827">匿名家长</text>  <text x="112" y="162" font-size="11" fill="#6b7280">local-user-scoremap-t06</text>  <rect x="28" y="204" width="334" height="84" rx="18" fill="#fff7ed" stroke="#fed7aa"/>  <text x="48" y="226" font-size="15" font-weight="700" fill="#111827">我的权益</text>  <rect x="36" y="232" width="96" height="62" rx="14" fill="#ffffff" stroke="#e5e7eb"/><text x="52" y="258" font-size="18" font-weight="700" fill="#111827">2</text><text x="48" y="280" font-size="11" fill="#6b7280">已生成报告</text><rect x="144" y="232" width="96" height="62" rx="14" fill="#ffffff" stroke="#e5e7eb"/><text x="160" y="258" font-size="18" font-weight="700" fill="#111827">1</text><text x="156" y="280" font-size="11" fill="#6b7280">分析中</text><rect x="252" y="232" width="96" height="62" rx="14" fill="#ffffff" stroke="#e5e7eb"/><text x="268" y="258" font-size="18" font-weight="700" fill="#111827">0</text><text x="264" y="280" font-size="11" fill="#6b7280">待补资料</text>  <rect x="28" y="336" width="334" height="46" rx="14" fill="#ffffff" stroke="#e5e7eb"/><text x="52" y="365" font-size="14" font-weight="700" fill="#111827">我的报告</text><text x="316" y="365" font-size="14" fill="#9ca3af">›</text><rect x="28" y="394" width="334" height="46" rx="14" fill="#ffffff" stroke="#e5e7eb"/><text x="52" y="423" font-size="14" font-weight="700" fill="#111827">订单记录</text><text x="316" y="423" font-size="14" fill="#9ca3af">›</text><rect x="28" y="452" width="334" height="46" rx="14" fill="#ffffff" stroke="#e5e7eb"/><text x="52" y="481" font-size="14" font-weight="700" fill="#111827">购买记录</text><text x="316" y="481" font-size="14" fill="#9ca3af">›</text><rect x="28" y="510" width="334" height="46" rx="14" fill="#ffffff" stroke="#e5e7eb"/><text x="52" y="539" font-size="14" font-weight="700" fill="#111827">帮助与反馈</text><text x="316" y="539" font-size="14" fill="#9ca3af">›</text>  <rect x="28" y="612" width="334" height="56" rx="22" fill="#2563eb"/>  <text x="130" y="647" font-size="16" font-weight="700" fill="#ffffff">继续新建分析</text>  <rect x="0" y="770" width="390" height="74" fill="#ffffff" stroke="#e5e7eb"/>  <text x="91" y="812" font-size="13" fill="#6b7280">首页</text>  <text x="284" y="812" font-size="13" fill="#2563eb">我的</text></svg>