<svg xmlns="http://www.w3.org/2000/svg" width="390" height="844" viewBox="0 0 390 844">
  <rect width="390" height="844" fill="#f8f6ff"/>
  <text x="28" y="70" font-size="26" font-weight="700" fill="#151c36">AI 提分决策</text>
  <text x="28" y="100" font-size="13" fill="#5f6b7a">上传试卷，先看 1 元初判</text>
  <rect x="28" y="132" width="334" height="214" rx="18" fill="#ffffff" stroke="#e4e0f8"/>
  <text x="52" y="178" font-size="22" font-weight="700" fill="#111827">上传孩子资料</text>
  <text x="52" y="210" font-size="13" fill="#6b7280">支持试卷、答题卡、错题照片或 PDF，本地流程会带着资料进入孩子信息页。</text>
  <rect x="52" y="246" width="286" height="58" rx="16" fill="#7656f3"/>
  <text x="131" y="283" font-size="18" font-weight="700" fill="#ffffff">上传资料</text>
  <text x="52" y="334" font-size="12" fill="#6b7280">上传前展示资料授权弹窗，本地 mock 保存授权状态</text>
  <text x="28" y="386" font-size="16" font-weight="700" fill="#111827">可点击控件</text>
  <rect x="48" y="398" width="294" height="32" rx="8" fill="#f5f7fb" stroke="#d5dae6"/><text x="64" y="419" font-size="14" fill="#1f2937">上传资料</text><rect x="48" y="440" width="294" height="32" rx="8" fill="#f5f7fb" stroke="#d5dae6"/><text x="64" y="461" font-size="14" fill="#1f2937">同意授权并选择本地文件</text><rect x="48" y="482" width="294" height="32" rx="8" fill="#f5f7fb" stroke="#d5dae6"/><text x="64" y="503" font-size="14" fill="#1f2937">暂不同意</text><rect x="48" y="524" width="294" height="32" rx="8" fill="#f5f7fb" stroke="#d5dae6"/><text x="64" y="545" font-size="14" fill="#1f2937">查看样例</text><rect x="48" y="566" width="294" height="32" rx="8" fill="#f5f7fb" stroke="#d5dae6"/><text x="64" y="587" font-size="14" fill="#1f2937">最近报告</text><rect x="48" y="608" width="294" height="32" rx="8" fill="#f5f7fb" stroke="#d5dae6"/><text x="64" y="629" font-size="14" fill="#1f2937">我的报告</text><rect x="48" y="650" width="294" height="32" rx="8" fill="#f5f7fb" stroke="#d5dae6"/><text x="64" y="671" font-size="14" fill="#1f2937">我的</text>
  <rect x="0" y="770" width="390" height="74" fill="#ffffff" stroke="#e5e7eb"/>
  <text x="91" y="812" font-size="13" fill="#7656f3">首页</text>
  <text x="284" y="812" font-size="13" fill="#6b7280">我的</text>
</svg>