<svg xmlns="urn:scoremap:local-svg" width="390" height="844" viewBox="0 0 390 844"><rect width="390" height="844" fill="#f6f7fb"/><text x="28" y="72" font-size="23" font-weight="700" fill="#111827">完整提分报告</text><rect x="18" y="92" width="354" height="104" rx="24" fill="#4533b7"/><text x="42" y="134" font-size="22" font-weight="700" fill="#ffffff">初一数学月考提分报告</text><text x="42" y="164" font-size="12" fill="#ffffff">本报告 AI 错题追问剩余 8/10 次</text><rect x="24" y="150" width="342" height="72" rx="18" fill="#ffffff" stroke="#e7e8f0"/><text x="44" y="175" font-size="11" fill="#7a8291">机会区间</text><text x="44" y="198" font-size="15" font-weight="700" fill="#1f2430">可追回分数</text><text x="194" y="193" font-size="17" font-weight="700" fill="#4533b7">8-14分</text><rect x="24" y="236" width="342" height="72" rx="18" fill="#ffffff" stroke="#e7e8f0"/><text x="44" y="261" font-size="11" fill="#7a8291">从哪里失分</text><text x="44" y="284" font-size="15" font-weight="700" fill="#1f2430">证据锚点</text><text x="194" y="279" font-size="17" font-weight="700" fill="#4533b7">3 个证据</text><rect x="24" y="322" width="342" height="72" rx="18" fill="#ffffff" stroke="#e7e8f0"/><text x="44" y="347" font-size="11" fill="#7a8291">先修最值钱</text><text x="44" y="370" font-size="15" font-weight="700" fill="#1f2430">提分优先级</text><text x="194" y="365" font-size="17" font-weight="700" fill="#4533b7">先做 主要丢分点</text><rect x="24" y="408" width="342" height="72" rx="18" fill="#ffffff" stroke="#e7e8f0"/><text x="44" y="433" font-size="11" fill="#7a8291">可打开修复</text><text x="44" y="456" font-size="15" font-weight="700" fill="#1f2430">关键错题</text><text x="194" y="451" font-size="17" font-weight="700" fill="#4533b7">2 题</text><rect x="24" y="494" width="342" height="72" rx="18" fill="#ffffff" stroke="#e7e8f0"/><text x="44" y="519" font-size="11" fill="#7a8291">建议介入</text><text x="44" y="542" font-size="15" font-weight="700" fill="#1f2430">老师介入判断</text><text x="194" y="537" font-size="17" font-weight="700" fill="#4533b7">建议介入</text><rect x="24" y="604" width="342" height="86" rx="18" fill="#ffffff" stroke="#e7e8f0"/><text x="44" y="634" font-size="14" font-weight="700" fill="#1f2430">错题 1 二元一次方程应用题</text><text x="44" y="658" font-size="11" fill="#555d6c">方程应用题</text><text x="234" y="660" font-size="11" fill="#4533b7">打开修复抽屉</text><rect x="24" y="744" width="160" height="44" rx="16" fill="#ffffff" stroke="#4533b7"/><text x="74" y="772" font-size="13" font-weight="700" fill="#4533b7">分享报告</text><rect x="206" y="744" width="160" height="44" rx="16" fill="#4533b7"/><text x="256" y="772" font-size="13" font-weight="700" fill="#ffffff">保存报告</text></svg>