<svg xmlns="http://www.w3.org/2000/svg" width="390" height="844" viewBox="0 0 390 844">
  <rect width="390" height="844" fill="#fdf8ff"/>
  <text x="54" y="58" font-size="20" font-weight="800" fill="#5a45cb">绛旈鍙嶉</text>

  <rect x="18" y="94" width="354" height="146" rx="24" fill="#eef8f0" stroke="#9fd6aa"/>
  <text x="42" y="142" font-size="34" font-weight="800" fill="#006d38">鉁?/text>
  <text x="92" y="142" font-size="22" font-weight="800" fill="#1c1b23">鍥炵瓟姝ｇ‘</text>
  <text x="92" y="176" font-size="12" fill="#474554">浣犵殑绛旀锛?6 鍗冪背</text>
  <text x="92" y="204" font-size="12" fill="#474554">姝ｇ‘绛旀锛?6 鍗冪背</text>
  <rect x="18" y="270" width="354" height="210" rx="24" fill="#ffffff" stroke="#ebe6f2"/>
  <text x="42" y="312" font-size="17" font-weight="800" fill="#1c1b23">AI 璁茶瘎</text>
  <text x="42" y="350" font-size="12" fill="#474554">浣犲厛绠楀嚭姣忓皬鏃跺璧?12 鍗冪背锛屽啀涔樹互 3 灏忔椂锛屾暟閲忓叧绯绘姄瀵逛簡銆?/text>
  <text x="42" y="410" font-size="13" font-weight="700" fill="#5a45cb">鍚岀被棰樿縼绉诲凡鎺屾彙銆?/text>
  <rect x="18" y="506" width="354" height="66" rx="18" fill="#ffffff" stroke="#ebe6f2"/>
  <text x="42" y="548" font-size="15" font-weight="800" fill="#1c1b23">鏈杩介棶璁板綍</text>
  <rect x="18" y="618" width="166" height="54" rx="18" fill="#ffffff" stroke="#5a45cb"/>
  <text x="72" y="652" font-size="14" font-weight="800" fill="#5a45cb">鍐嶇粌涓€棰?/text>
  <rect x="206" y="618" width="166" height="54" rx="18" fill="#5a45cb"/>
  <text x="260" y="652" font-size="14" font-weight="800" fill="#ffffff">杩斿洖鎶ュ憡</text>
  <rect x="0" y="776" width="390" height="68" fill="#ffffff" stroke="#ebe6f2"/>
  <text x="54" y="818" font-size="12" fill="#777383">鎶ュ憡</text>
  <text x="170" y="818" font-size="12" font-weight="800" fill="#5a45cb">AI 鎻愬垎</text>
  <text x="294" y="818" font-size="12" fill="#777383">鍘熼敊棰?/text>
</svg>
