<svg xmlns="http://www.w3.org/2000/svg" width="390" height="844" viewBox="0 0 390 844">
  <rect width="390" height="844" fill="#f6f7fb"/>
  <text x="28" y="72" font-size="24" font-weight="700" fill="#111827">我的报告</text>

  <rect x="28" y="110" width="74" height="30" rx="14" fill="#111827" stroke="#d1d5db"/><text x="44" y="130" font-size="11" fill="#ffffff">全部</text><rect x="112" y="110" width="74" height="30" rx="14" fill="#ffffff" stroke="#d1d5db"/><text x="128" y="130" font-size="11" fill="#374151">分析中</text><rect x="196" y="110" width="74" height="30" rx="14" fill="#ffffff" stroke="#d1d5db"/><text x="212" y="130" font-size="11" fill="#374151">已生成</text><rect x="280" y="110" width="74" height="30" rx="14" fill="#ffffff" stroke="#d1d5db"/><text x="296" y="130" font-size="11" fill="#374151">失败/待补</text>
  <rect x="28" y="172" width="334" height="104" rx="16" fill="#ffffff" stroke="#e5e7eb"/>
  <text x="48" y="200" font-size="15" font-weight="700" fill="#111827">五年级数学单元测验完整报告</text>
  <text x="48" y="224" font-size="11" fill="#6b7280">五年级 · 数学 · 单元测验</text>
  <text x="48" y="250" font-size="12" fill="#2563eb">完整报告已解锁 / paid</text>
  <text x="270" y="250" font-size="12" font-weight="700" fill="#111827">查看完整报告</text><rect x="28" y="298" width="334" height="104" rx="16" fill="#ffffff" stroke="#e5e7eb"/>
  <text x="48" y="326" font-size="15" font-weight="700" fill="#111827">分析中的数学资料</text>
  <text x="48" y="350" font-size="11" fill="#6b7280">五年级 · 数学 · 课后练习</text>
  <text x="48" y="376" font-size="12" fill="#2563eb">分析中 / unpaid</text>
  <text x="270" y="376" font-size="12" font-weight="700" fill="#111827">查看进度</text>
  <rect x="28" y="692" width="334" height="46" rx="18" fill="#f8fafc" stroke="#d1d5db"/>
  <text x="124" y="722" font-size="13" fill="#374151">GET /api/my/reports</text>
</svg>
